<mxfile host="app.diagrams.net" agent="Mozilla/5.0 (Windows NT 10.0; Win64; x64; rv:130.0) Gecko/20100101 Firefox/130.0" version="24.7.15">
  <diagram name="Page-1" id="L1OuqhEw-fEruu5ibHg5">
    <mxGraphModel dx="813" dy="1543" grid="1" gridSize="10" guides="1" tooltips="1" connect="1" arrows="1" fold="1" page="1" pageScale="1" pageWidth="850" pageHeight="1100" math="0" shadow="0">
      <root>
        <mxCell id="0" />
        <mxCell id="1" parent="0" />
        <mxCell id="IgNi5zP_baFBuqDR0OYr-24" value="" style="shape=umlLifeline;participant=umlActor;perimeter=lifelinePerimeter;whiteSpace=wrap;html=1;container=1;collapsible=0;recursiveResize=0;verticalAlign=top;spacingTop=36;outlineConnect=0;fillColor=#cdeb8b;strokeColor=#36393d;" vertex="1" parent="1">
          <mxGeometry x="120" width="25" height="360" as="geometry" />
        </mxCell>
        <mxCell id="IgNi5zP_baFBuqDR0OYr-40" value="" style="html=1;points=[[0,0,0,0,5],[0,1,0,0,-5],[1,0,0,0,5],[1,1,0,0,-5]];perimeter=orthogonalPerimeter;outlineConnect=0;targetShapes=umlLifeline;portConstraint=eastwest;newEdgeStyle={&quot;curved&quot;:0,&quot;rounded&quot;:0};fillColor=#cce5ff;strokeColor=#36393d;" vertex="1" parent="IgNi5zP_baFBuqDR0OYr-24">
          <mxGeometry x="7.5" y="280" width="10" height="20" as="geometry" />
        </mxCell>
        <mxCell id="IgNi5zP_baFBuqDR0OYr-25" value="" style="html=1;points=[[0,0,0,0,5],[0,1,0,0,-5],[1,0,0,0,5],[1,1,0,0,-5]];perimeter=orthogonalPerimeter;outlineConnect=0;targetShapes=umlLifeline;portConstraint=eastwest;newEdgeStyle={&quot;curved&quot;:0,&quot;rounded&quot;:0};fillColor=#cce5ff;strokeColor=#36393d;" vertex="1" parent="IgNi5zP_baFBuqDR0OYr-24">
          <mxGeometry x="7.5" y="320" width="10" height="20" as="geometry" />
        </mxCell>
        <mxCell id="IgNi5zP_baFBuqDR0OYr-26" value="Système" style="shape=umlLifeline;perimeter=lifelinePerimeter;whiteSpace=wrap;html=1;container=1;collapsible=0;recursiveResize=0;outlineConnect=0;fillColor=#ffff88;strokeColor=#36393d;" vertex="1" parent="1">
          <mxGeometry x="344" y="10" width="140" height="350" as="geometry" />
        </mxCell>
        <mxCell id="IgNi5zP_baFBuqDR0OYr-27" value="" style="html=1;points=[[0,0,0,0,5],[0,1,0,0,-5],[1,0,0,0,5],[1,1,0,0,-5]];perimeter=orthogonalPerimeter;outlineConnect=0;targetShapes=umlLifeline;portConstraint=eastwest;newEdgeStyle={&quot;curved&quot;:0,&quot;rounded&quot;:0};fillColor=#cce5ff;strokeColor=#36393d;" vertex="1" parent="IgNi5zP_baFBuqDR0OYr-26">
          <mxGeometry x="65" y="110" width="10" height="40" as="geometry" />
        </mxCell>
        <mxCell id="IgNi5zP_baFBuqDR0OYr-29" value="" style="html=1;verticalAlign=bottom;endArrow=open;endSize=8;" edge="1" parent="IgNi5zP_baFBuqDR0OYr-26">
          <mxGeometry relative="1" as="geometry">
            <mxPoint x="66" y="140" as="sourcePoint" />
            <mxPoint x="-209" y="140" as="targetPoint" />
            <Array as="points">
              <mxPoint x="-89.5" y="140" />
            </Array>
          </mxGeometry>
        </mxCell>
        <mxCell id="IgNi5zP_baFBuqDR0OYr-30" value="2. confirmer commande" style="edgeLabel;html=1;align=center;verticalAlign=middle;resizable=0;points=[];" vertex="1" connectable="0" parent="IgNi5zP_baFBuqDR0OYr-29">
          <mxGeometry x="0.3071" relative="1" as="geometry">
            <mxPoint x="38" y="-10" as="offset" />
          </mxGeometry>
        </mxCell>
        <mxCell id="IgNi5zP_baFBuqDR0OYr-31" value="&lt;div&gt;4.&amp;nbsp;&lt;/div&gt;&lt;div&gt;Vérification?&lt;/div&gt;" style="html=1;align=left;spacingLeft=2;endArrow=block;rounded=0;edgeStyle=orthogonalEdgeStyle;curved=0;rounded=0;" edge="1" parent="IgNi5zP_baFBuqDR0OYr-26">
          <mxGeometry relative="1" as="geometry">
            <mxPoint x="75" y="180" as="sourcePoint" />
            <Array as="points">
              <mxPoint x="105" y="210" />
            </Array>
            <mxPoint x="80" y="210" as="targetPoint" />
          </mxGeometry>
        </mxCell>
        <mxCell id="IgNi5zP_baFBuqDR0OYr-32" value="" style="html=1;points=[[0,0,0,0,5],[0,1,0,0,-5],[1,0,0,0,5],[1,1,0,0,-5]];perimeter=orthogonalPerimeter;outlineConnect=0;targetShapes=umlLifeline;portConstraint=eastwest;newEdgeStyle={&quot;curved&quot;:0,&quot;rounded&quot;:0};fillColor=#cce5ff;strokeColor=#36393d;" vertex="1" parent="IgNi5zP_baFBuqDR0OYr-26">
          <mxGeometry x="65" y="170" width="10" height="160" as="geometry" />
        </mxCell>
        <mxCell id="IgNi5zP_baFBuqDR0OYr-33" value="" style="html=1;points=[[0,0,0,0,5],[0,1,0,0,-5],[1,0,0,0,5],[1,1,0,0,-5]];perimeter=orthogonalPerimeter;outlineConnect=0;targetShapes=umlLifeline;portConstraint=eastwest;newEdgeStyle={&quot;curved&quot;:0,&quot;rounded&quot;:0};fillColor=#cce5ff;strokeColor=#36393d;" vertex="1" parent="IgNi5zP_baFBuqDR0OYr-26">
          <mxGeometry x="69" y="200" width="10" height="20" as="geometry" />
        </mxCell>
        <mxCell id="IgNi5zP_baFBuqDR0OYr-37" value="alt" style="shape=umlFrame;whiteSpace=wrap;html=1;fillColor=#ffcc99;strokeColor=#36393d;" vertex="1" parent="1">
          <mxGeometry x="51" y="247" width="469" height="103" as="geometry" />
        </mxCell>
        <mxCell id="IgNi5zP_baFBuqDR0OYr-38" value="1: cliquer sur commander" style="html=1;verticalAlign=bottom;endArrow=block;" edge="1" parent="1">
          <mxGeometry x="-0.0015" width="80" relative="1" as="geometry">
            <mxPoint x="135" y="120" as="sourcePoint" />
            <mxPoint x="413.5" y="120" as="targetPoint" />
            <Array as="points">
              <mxPoint x="250" y="120" />
            </Array>
            <mxPoint as="offset" />
          </mxGeometry>
        </mxCell>
        <mxCell id="IgNi5zP_baFBuqDR0OYr-39" value="3&amp;nbsp;: valide la confirmation" style="html=1;verticalAlign=bottom;endArrow=block;" edge="1" parent="1">
          <mxGeometry width="80" relative="1" as="geometry">
            <mxPoint x="135" y="180" as="sourcePoint" />
            <mxPoint x="413.5" y="180" as="targetPoint" />
            <Array as="points">
              <mxPoint x="250" y="180" />
            </Array>
          </mxGeometry>
        </mxCell>
        <mxCell id="IgNi5zP_baFBuqDR0OYr-41" value="" style="html=1;verticalAlign=bottom;endArrow=open;endSize=8;" edge="1" parent="1">
          <mxGeometry relative="1" as="geometry">
            <mxPoint x="410" y="284" as="sourcePoint" />
            <mxPoint x="137.5" y="283.76" as="targetPoint" />
            <Array as="points">
              <mxPoint x="252" y="283.76" />
            </Array>
          </mxGeometry>
        </mxCell>
        <mxCell id="IgNi5zP_baFBuqDR0OYr-43" value="&lt;div style=&quot;font-size: 10px;&quot;&gt;&lt;font style=&quot;font-size: 10px;&quot;&gt;Diagramme de séquence Système : Passer une commande&lt;br&gt;&lt;/font&gt;&lt;/div&gt;" style="shape=umlFrame;whiteSpace=wrap;html=1;pointerEvents=0;width=290;height=20;fillColor=#f9f7ed;strokeColor=#36393d;" vertex="1" parent="1">
          <mxGeometry x="30" y="-50" width="510" height="410" as="geometry" />
        </mxCell>
        <mxCell id="IgNi5zP_baFBuqDR0OYr-44" value="Client" style="text;html=1;align=center;verticalAlign=middle;resizable=0;points=[];autosize=1;strokeColor=none;fillColor=none;" vertex="1" parent="1">
          <mxGeometry x="102.5" y="40" width="60" height="30" as="geometry" />
        </mxCell>
        <mxCell id="IgNi5zP_baFBuqDR0OYr-28" value="7: message d&#39;erreur" style="html=1;verticalAlign=bottom;endArrow=open;endSize=11;startSize=0;jumpSize=14;" edge="1" parent="1">
          <mxGeometry relative="1" as="geometry">
            <mxPoint x="410" y="330" as="sourcePoint" />
            <mxPoint x="137.5" y="330" as="targetPoint" />
            <Array as="points">
              <mxPoint x="252.5" y="330" />
            </Array>
          </mxGeometry>
        </mxCell>
        <mxCell id="IgNi5zP_baFBuqDR0OYr-42" value="6. commande validée" style="text;html=1;align=center;verticalAlign=middle;resizable=0;points=[];autosize=1;strokeColor=none;fillColor=none;" vertex="1" parent="1">
          <mxGeometry x="209" y="260" width="140" height="30" as="geometry" />
        </mxCell>
        <mxCell id="IgNi5zP_baFBuqDR0OYr-36" value="" style="line;strokeWidth=1;fillColor=none;align=left;verticalAlign=middle;spacingTop=-1;spacingLeft=3;spacingRight=3;rotatable=0;labelPosition=right;points=[];portConstraint=eastwest;strokeColor=inherit;dashed=1;" vertex="1" parent="1">
          <mxGeometry x="51" y="302" width="460" height="8" as="geometry" />
        </mxCell>
        <mxCell id="IgNi5zP_baFBuqDR0OYr-34" value="[Succès]" style="text;html=1;align=center;verticalAlign=middle;resizable=0;points=[];autosize=1;strokeColor=none;" vertex="1" parent="1">
          <mxGeometry x="60" y="274" width="60" height="20" as="geometry" />
        </mxCell>
        <mxCell id="IgNi5zP_baFBuqDR0OYr-35" value="[Echec]" style="text;html=1;align=center;verticalAlign=middle;resizable=0;points=[];autosize=1;strokeColor=none;" vertex="1" parent="1">
          <mxGeometry x="60" y="310" width="60" height="20" as="geometry" />
        </mxCell>
        <mxCell id="IgNi5zP_baFBuqDR0OYr-48" value="&lt;div&gt;5. traitement ?&lt;/div&gt;" style="html=1;align=left;spacingLeft=2;endArrow=block;rounded=0;edgeStyle=orthogonalEdgeStyle;curved=0;rounded=0;" edge="1" parent="1">
          <mxGeometry relative="1" as="geometry">
            <mxPoint x="420" y="260" as="sourcePoint" />
            <Array as="points">
              <mxPoint x="446" y="290" />
            </Array>
            <mxPoint x="421" y="290" as="targetPoint" />
          </mxGeometry>
        </mxCell>
        <mxCell id="IgNi5zP_baFBuqDR0OYr-49" value="" style="html=1;points=[[0,0,0,0,5],[0,1,0,0,-5],[1,0,0,0,5],[1,1,0,0,-5]];perimeter=orthogonalPerimeter;outlineConnect=0;targetShapes=umlLifeline;portConstraint=eastwest;newEdgeStyle={&quot;curved&quot;:0,&quot;rounded&quot;:0};fillColor=#cce5ff;strokeColor=#36393d;" vertex="1" parent="1">
          <mxGeometry x="415" y="282" width="10" height="20" as="geometry" />
        </mxCell>
      </root>
    </mxGraphModel>
  </diagram>
</mxfile>
